<?xml version="1.0" encoding="UTF-8"?>
<?xml-stylesheet href="https://cdnjs.cloudflare.com/ajax/libs/font-awesome/6.7.2/css/all.min.css" type="text/css"?>
<svg aria-roledescription="er" role="graphics-document document" viewBox="-2.9820022583007812 0 342.98199462890625 335" style="max-width: 100%;" xmlns="http://www.w3.org/2000/svg" width="100%" id="graph-div" height="100%" xmlns:xlink="http://www.w3.org/1999/xlink"><style>#graph-div{font-family:"trebuchet ms",verdana,arial,sans-serif;font-size:16px;fill:#ccc;}#graph-div .error-icon{fill:#a44141;}#graph-div .error-text{fill:#ddd;stroke:#ddd;}#graph-div .edge-thickness-normal{stroke-width:1px;}#graph-div .edge-thickness-thick{stroke-width:3.5px;}#graph-div .edge-pattern-solid{stroke-dasharray:0;}#graph-div .edge-thickness-invisible{stroke-width:0;fill:none;}#graph-div .edge-pattern-dashed{stroke-dasharray:3;}#graph-div .edge-pattern-dotted{stroke-dasharray:2;}#graph-div .marker{fill:lightgrey;stroke:lightgrey;}#graph-div .marker.cross{stroke:lightgrey;}#graph-div svg{font-family:"trebuchet ms",verdana,arial,sans-serif;font-size:16px;}#graph-div p{margin:0;}#graph-div .entityBox{fill:#1f2020;stroke:#ccc;}#graph-div .attributeBoxOdd{fill:hsl(0, 0%, 32%);stroke:#ccc;}#graph-div .attributeBoxEven{fill:hsl(0, 0%, 22%);stroke:#ccc;}#graph-div .relationshipLabelBox{fill:hsl(20, 1.5873015873%, 12.3529411765%);opacity:0.7;background-color:hsl(20, 1.5873015873%, 12.3529411765%);}#graph-div .relationshipLabelBox rect{opacity:0.5;}#graph-div .relationshipLine{stroke:lightgrey;}#graph-div .entityTitleText{text-anchor:middle;font-size:18px;fill:#ccc;}#graph-div #MD_PARENT_START{fill:#f5f5f5!important;stroke:lightgrey!important;stroke-width:1;}#graph-div #MD_PARENT_END{fill:#f5f5f5!important;stroke:lightgrey!important;stroke-width:1;}#graph-div :root{--mermaid-font-family:"trebuchet ms",verdana,arial,sans-serif;}</style><g></g><defs><marker orient="auto" markerHeight="240" markerWidth="190" refY="7" refX="0" id="MD_PARENT_START"><path d="M 18,7 L9,13 L1,7 L9,1 Z"></path></marker></defs><defs><marker orient="auto" markerHeight="28" markerWidth="20" refY="7" refX="19" id="MD_PARENT_END"><path d="M 18,7 L9,13 L1,7 L9,1 Z"></path></marker></defs><defs><marker orient="auto" markerHeight="18" markerWidth="18" refY="9" refX="0" id="ONLY_ONE_START"><path d="M9,0 L9,18 M15,0 L15,18" fill="none" stroke="gray"></path></marker></defs><defs><marker orient="auto" markerHeight="18" markerWidth="18" refY="9" refX="18" id="ONLY_ONE_END"><path d="M3,0 L3,18 M9,0 L9,18" fill="none" stroke="gray"></path></marker></defs><defs><marker orient="auto" markerHeight="18" markerWidth="30" refY="9" refX="0" id="ZERO_OR_ONE_START"><circle r="6" cy="9" cx="21" fill="white" stroke="gray"></circle><path d="M9,0 L9,18" fill="none" stroke="gray"></path></marker></defs><defs><marker orient="auto" markerHeight="18" markerWidth="30" refY="9" refX="30" id="ZERO_OR_ONE_END"><circle r="6" cy="9" cx="9" fill="white" stroke="gray"></circle><path d="M21,0 L21,18" fill="none" stroke="gray"></path></marker></defs><defs><marker orient="auto" markerHeight="36" markerWidth="45" refY="18" refX="18" id="ONE_OR_MORE_START"><path d="M0,18 Q 18,0 36,18 Q 18,36 0,18 M42,9 L42,27" fill="none" stroke="gray"></path></marker></defs><defs><marker orient="auto" markerHeight="36" markerWidth="45" refY="18" refX="27" id="ONE_OR_MORE_END"><path d="M3,9 L3,27 M9,18 Q27,0 45,18 Q27,36 9,18" fill="none" stroke="gray"></path></marker></defs><defs><marker orient="auto" markerHeight="36" markerWidth="57" refY="18" refX="18" id="ZERO_OR_MORE_START"><circle r="6" cy="18" cx="48" fill="white" stroke="gray"></circle><path d="M0,18 Q18,0 36,18 Q18,36 0,18" fill="none" stroke="gray"></path></marker></defs><defs><marker orient="auto" markerHeight="36" markerWidth="57" refY="18" refX="39" id="ZERO_OR_MORE_END"><circle r="6" cy="18" cx="9" fill="white" stroke="gray"></circle><path d="M21,18 Q39,0 57,18 Q39,36 21,18" fill="none" stroke="gray"></path></marker></defs><path style="stroke: gray; fill: none;" marker-start="url(#ONLY_ONE_START)" marker-end="url(#ZERO_OR_MORE_END)" stroke-dasharray="8,8" d="M46.738,107L42.282,115.333C37.825,123.667,28.913,140.333,32.79,157.333C36.667,174.333,53.333,191.667,61.667,200.333L70,209" class="er relationshipLine"></path><path style="stroke: gray; fill: none;" marker-start="url(#ONLY_ONE_START)" marker-end="url(#ONE_OR_MORE_END)" stroke-dasharray="8,8" d="M120,207L120,198.667C120,190.333,120,173.667,115.544,157C111.087,140.333,102.175,123.667,97.718,115.333L93.262,107" class="er relationshipLine"></path><path style="stroke: gray; fill: none;" marker-start="url(#ONLY_ONE_START)" marker-end="url(#ZERO_OR_MORE_END)" d="M270,107L270,115.333C270,123.667,270,140.333,253.333,160.222C236.667,180.111,203.333,203.222,186.667,214.778L170,226.333" class="er relationshipLine"></path><g transform="translate(20,20 )" id="entity-USER-6e7e2962-0c6f-577d-a7fd-2ce3a0cfd2c8"><rect height="87" width="100" y="0" x="0" class="er entityBox"></rect><text transform="translate(50,12)" style="dominant-baseline: middle; text-anchor: middle; font-size: 12px;" y="0" x="0" id="text-entity-USER-6e7e2962-0c6f-577d-a7fd-2ce3a0cfd2c8" class="er entityLabel">USER</text><rect height="21" width="38.80347696940104" y="24" x="0" class="er attributeBoxOdd"></rect><text transform="translate(5,34.5)" style="dominant-baseline: middle; font-size: 10.2px;" y="0" x="0" id="text-entity-USER-6e7e2962-0c6f-577d-a7fd-2ce3a0cfd2c8-attr-1-type" class="er entityLabel">String</text><rect height="21" width="37.674296061197914" y="24" x="38.80347696940104" class="er attributeBoxOdd"></rect><text transform="translate(43.80347696940104,34.5)" style="dominant-baseline: middle; font-size: 10.2px;" y="0" x="0" id="text-entity-USER-6e7e2962-0c6f-577d-a7fd-2ce3a0cfd2c8-attr-1-name" class="er entityLabel">id</text><rect height="21" width="23.522226969401043" y="24" x="76.47777303059895" class="er attributeBoxOdd"></rect><text transform="translate(81.47777303059895,34.5)" style="dominant-baseline: middle; font-size: 10.2px;" y="0" x="0" id="text-entity-USER-6e7e2962-0c6f-577d-a7fd-2ce3a0cfd2c8-attr-1-key" class="er entityLabel">pk</text><rect height="21" width="38.80347696940104" y="45" x="0" class="er attributeBoxEven"></rect><text transform="translate(5,55.5)" style="dominant-baseline: middle; font-size: 10.2px;" y="0" x="0" id="text-entity-USER-6e7e2962-0c6f-577d-a7fd-2ce3a0cfd2c8-attr-2-type" class="er entityLabel">String</text><rect height="21" width="37.674296061197914" y="45" x="38.80347696940104" class="er attributeBoxEven"></rect><text transform="translate(43.80347696940104,55.5)" style="dominant-baseline: middle; font-size: 10.2px;" y="0" x="0" id="text-entity-USER-6e7e2962-0c6f-577d-a7fd-2ce3a0cfd2c8-attr-2-name" class="er entityLabel">email</text><rect height="21" width="23.522226969401043" y="45" x="76.47777303059895" class="er attributeBoxEven"></rect><text transform="translate(81.47777303059895,55.5)" style="dominant-baseline: middle; font-size: 10.2px;" y="0" x="0" id="text-entity-USER-6e7e2962-0c6f-577d-a7fd-2ce3a0cfd2c8-attr-2-key" class="er entityLabel"></text><rect height="21" width="38.80347696940104" y="66" x="0" class="er attributeBoxOdd"></rect><text transform="translate(5,76.5)" style="dominant-baseline: middle; font-size: 10.2px;" y="0" x="0" id="text-entity-USER-6e7e2962-0c6f-577d-a7fd-2ce3a0cfd2c8-attr-3-type" class="er entityLabel">String</text><rect height="21" width="37.674296061197914" y="66" x="38.80347696940104" class="er attributeBoxOdd"></rect><text transform="translate(43.80347696940104,76.5)" style="dominant-baseline: middle; font-size: 10.2px;" y="0" x="0" id="text-entity-USER-6e7e2962-0c6f-577d-a7fd-2ce3a0cfd2c8-attr-3-name" class="er entityLabel">name</text><rect height="21" width="23.522226969401043" y="66" x="76.47777303059895" class="er attributeBoxOdd"></rect><text transform="translate(81.47777303059895,76.5)" style="dominant-baseline: middle; font-size: 10.2px;" y="0" x="0" id="text-entity-USER-6e7e2962-0c6f-577d-a7fd-2ce3a0cfd2c8-attr-3-key" class="er entityLabel"></text></g><g transform="translate(70,207 )" id="entity-POST-dedb1204-6961-5504-b717-5f982e5d0300"><rect height="108" width="100" y="0" x="0" class="er entityBox"></rect><text transform="translate(50,12)" style="dominant-baseline: middle; text-anchor: middle; font-size: 12px;" y="0" x="0" id="text-entity-POST-dedb1204-6961-5504-b717-5f982e5d0300" class="er entityLabel">POST</text><rect height="21" width="39.743631998697914" y="24" x="0" class="er attributeBoxOdd"></rect><text transform="translate(5,34.5)" style="dominant-baseline: middle; font-size: 10.2px;" y="0" x="0" id="text-entity-POST-dedb1204-6961-5504-b717-5f982e5d0300-attr-1-type" class="er entityLabel">String</text><rect height="21" width="35.793986002604164" y="24" x="39.743631998697914" class="er attributeBoxOdd"></rect><text transform="translate(44.743631998697914,34.5)" style="dominant-baseline: middle; font-size: 10.2px;" y="0" x="0" id="text-entity-POST-dedb1204-6961-5504-b717-5f982e5d0300-attr-1-name" class="er entityLabel">id</text><rect height="21" width="24.462381998697918" y="24" x="75.53761800130208" class="er attributeBoxOdd"></rect><text transform="translate(80.53761800130208,34.5)" style="dominant-baseline: middle; font-size: 10.2px;" y="0" x="0" id="text-entity-POST-dedb1204-6961-5504-b717-5f982e5d0300-attr-1-key" class="er entityLabel">pk</text><rect height="21" width="39.743631998697914" y="45" x="0" class="er attributeBoxEven"></rect><text transform="translate(5,55.5)" style="dominant-baseline: middle; font-size: 10.2px;" y="0" x="0" id="text-entity-POST-dedb1204-6961-5504-b717-5f982e5d0300-attr-2-type" class="er entityLabel">Date</text><rect height="21" width="35.793986002604164" y="45" x="39.743631998697914" class="er attributeBoxEven"></rect><text transform="translate(44.743631998697914,55.5)" style="dominant-baseline: middle; font-size: 10.2px;" y="0" x="0" id="text-entity-POST-dedb1204-6961-5504-b717-5f982e5d0300-attr-2-name" class="er entityLabel">Date</text><rect height="21" width="24.462381998697918" y="45" x="75.53761800130208" class="er attributeBoxEven"></rect><text transform="translate(80.53761800130208,55.5)" style="dominant-baseline: middle; font-size: 10.2px;" y="0" x="0" id="text-entity-POST-dedb1204-6961-5504-b717-5f982e5d0300-attr-2-key" class="er entityLabel"></text><rect height="21" width="39.743631998697914" y="66" x="0" class="er attributeBoxOdd"></rect><text transform="translate(5,76.5)" style="dominant-baseline: middle; font-size: 10.2px;" y="0" x="0" id="text-entity-POST-dedb1204-6961-5504-b717-5f982e5d0300-attr-3-type" class="er entityLabel">String</text><rect height="21" width="35.793986002604164" y="66" x="39.743631998697914" class="er attributeBoxOdd"></rect><text transform="translate(44.743631998697914,76.5)" style="dominant-baseline: middle; font-size: 10.2px;" y="0" x="0" id="text-entity-POST-dedb1204-6961-5504-b717-5f982e5d0300-attr-3-name" class="er entityLabel">title</text><rect height="21" width="24.462381998697918" y="66" x="75.53761800130208" class="er attributeBoxOdd"></rect><text transform="translate(80.53761800130208,76.5)" style="dominant-baseline: middle; font-size: 10.2px;" y="0" x="0" id="text-entity-POST-dedb1204-6961-5504-b717-5f982e5d0300-attr-3-key" class="er entityLabel"></text><rect height="21" width="39.743631998697914" y="87" x="0" class="er attributeBoxEven"></rect><text transform="translate(5,97.5)" style="dominant-baseline: middle; font-size: 10.2px;" y="0" x="0" id="text-entity-POST-dedb1204-6961-5504-b717-5f982e5d0300-attr-4-type" class="er entityLabel">String</text><rect height="21" width="35.793986002604164" y="87" x="39.743631998697914" class="er attributeBoxEven"></rect><text transform="translate(44.743631998697914,97.5)" style="dominant-baseline: middle; font-size: 10.2px;" y="0" x="0" id="text-entity-POST-dedb1204-6961-5504-b717-5f982e5d0300-attr-4-name" class="er entityLabel">body</text><rect height="21" width="24.462381998697918" y="87" x="75.53761800130208" class="er attributeBoxEven"></rect><text transform="translate(80.53761800130208,97.5)" style="dominant-baseline: middle; font-size: 10.2px;" y="0" x="0" id="text-entity-POST-dedb1204-6961-5504-b717-5f982e5d0300-attr-4-key" class="er entityLabel"></text></g><g transform="translate(220,20 )" id="entity-COMMENT-7200c8cd-419e-593d-9e89-c74d55c6fb75"><rect height="87" width="100" y="0" x="0" class="er entityBox"></rect><text transform="translate(50,12)" style="dominant-baseline: middle; text-anchor: middle; font-size: 12px;" y="0" x="0" id="text-entity-COMMENT-7200c8cd-419e-593d-9e89-c74d55c6fb75" class="er entityLabel">COMMENT</text><rect height="21" width="40.688761393229164" y="24" x="0" class="er attributeBoxOdd"></rect><text transform="translate(5,34.5)" style="dominant-baseline: middle; font-size: 10.2px;" y="0" x="0" id="text-entity-COMMENT-7200c8cd-419e-593d-9e89-c74d55c6fb75-attr-1-type" class="er entityLabel">String</text><rect height="21" width="33.903727213541664" y="24" x="40.688761393229164" class="er attributeBoxOdd"></rect><text transform="translate(45.688761393229164,34.5)" style="dominant-baseline: middle; font-size: 10.2px;" y="0" x="0" id="text-entity-COMMENT-7200c8cd-419e-593d-9e89-c74d55c6fb75-attr-1-name" class="er entityLabel">id</text><rect height="21" width="25.407511393229168" y="24" x="74.59248860677083" class="er attributeBoxOdd"></rect><text transform="translate(79.59248860677083,34.5)" style="dominant-baseline: middle; font-size: 10.2px;" y="0" x="0" id="text-entity-COMMENT-7200c8cd-419e-593d-9e89-c74d55c6fb75-attr-1-key" class="er entityLabel">pk</text><rect height="21" width="40.688761393229164" y="45" x="0" class="er attributeBoxEven"></rect><text transform="translate(5,55.5)" style="dominant-baseline: middle; font-size: 10.2px;" y="0" x="0" id="text-entity-COMMENT-7200c8cd-419e-593d-9e89-c74d55c6fb75-attr-2-type" class="er entityLabel">String</text><rect height="21" width="33.903727213541664" y="45" x="40.688761393229164" class="er attributeBoxEven"></rect><text transform="translate(45.688761393229164,55.5)" style="dominant-baseline: middle; font-size: 10.2px;" y="0" x="0" id="text-entity-COMMENT-7200c8cd-419e-593d-9e89-c74d55c6fb75-attr-2-name" class="er entityLabel">text</text><rect height="21" width="25.407511393229168" y="45" x="74.59248860677083" class="er attributeBoxEven"></rect><text transform="translate(79.59248860677083,55.5)" style="dominant-baseline: middle; font-size: 10.2px;" y="0" x="0" id="text-entity-COMMENT-7200c8cd-419e-593d-9e89-c74d55c6fb75-attr-2-key" class="er entityLabel"></text><rect height="21" width="40.688761393229164" y="66" x="0" class="er attributeBoxOdd"></rect><text transform="translate(5,76.5)" style="dominant-baseline: middle; font-size: 10.2px;" y="0" x="0" id="text-entity-COMMENT-7200c8cd-419e-593d-9e89-c74d55c6fb75-attr-3-type" class="er entityLabel">Date</text><rect height="21" width="33.903727213541664" y="66" x="40.688761393229164" class="er attributeBoxOdd"></rect><text transform="translate(45.688761393229164,76.5)" style="dominant-baseline: middle; font-size: 10.2px;" y="0" x="0" id="text-entity-COMMENT-7200c8cd-419e-593d-9e89-c74d55c6fb75-attr-3-name" class="er entityLabel">date</text><rect height="21" width="25.407511393229168" y="66" x="74.59248860677083" class="er attributeBoxOdd"></rect><text transform="translate(79.59248860677083,76.5)" style="dominant-baseline: middle; font-size: 10.2px;" y="0" x="0" id="text-entity-COMMENT-7200c8cd-419e-593d-9e89-c74d55c6fb75-attr-3-key" class="er entityLabel"></text></g><rect height="14" width="34.6875" y="155.55902099609375" x="17.018001556396484" class="er relationshipLabelBox"></rect><text style="text-anchor: middle; dominant-baseline: middle; font-size: 12px;" y="162.55902099609375" x="34.361751556396484" id="rel814" class="er relationshipLabel">places</text><rect height="14" width="42.046875" y="147.82925415039062" x="93.91522216796875" class="er relationshipLabelBox"></rect><text style="text-anchor: middle; dominant-baseline: middle; font-size: 12px;" y="154.82925415039062" x="114.93865966796875" id="rel815" class="er relationshipLabel">belongs</text><rect height="14" width="23.34765625" y="170.59042358398438" x="224.21060180664062" class="er relationshipLabelBox"></rect><text style="text-anchor: middle; dominant-baseline: middle; font-size: 12px;" y="177.59042358398438" x="235.88442993164062" id="rel816" class="er relationshipLabel">post</text></svg>